<svg width="861" height="669" viewBox="0 0 861 669" fill="none" xmlns="http://www.w3.org/2000/svg">
<path d="M81.1025 644C123.628 644 158.103 609.526 158.103 567C158.103 524.474 123.628 490 81.1025 490C38.5766 490 4.10254 524.474 4.10254 567C4.10254 609.526 38.5766 644 81.1025 644Z" fill="url(#paint0_linear)"/>
<path opacity="0.3" d="M153.703 592.8C139.403 632.9 95.4026 653.7 55.3026 639.5C15.2026 625.3 -5.59736 581.2 8.60264 541.1C11.6026 532.8 15.9026 525.1 21.5026 518.2C7.20264 558.3 28.1026 602.3 68.2026 616.6C98.8026 627.5 133.103 618 153.703 592.8Z" fill="#304057"/>
<path opacity="0.3" d="M136.003 621C159.803 585.7 150.503 537.9 115.203 514.1C84.4026 493.3 43.2026 497.5 17.2026 524C41.0026 488.7 88.8026 479.4 124.103 503.2C159.403 527 168.703 574.8 144.903 610.1C142.303 614 139.303 617.6 136.003 621Z" fill="white"/>
<path d="M859.103 567C859.103 622.5 825.103 667.5 782.903 668C782.603 668 263.403 644 263.103 644C220.603 644 186.103 609.5 186.103 567C186.103 524.5 220.603 490 263.103 490C263.703 490 783.303 466 783.903 466C825.603 467.3 859.103 512 859.103 567Z" fill="url(#paint1_linear)"/>
<path opacity="0.15" d="M844.203 626.8C830.302 651.6 808.103 667.8 782.903 668.1C782.603 668.1 263.403 644.1 263.103 644.1C220.603 644.1 186.103 609.7 186.103 567.1C186.103 544.4 196.103 522.9 213.403 508.2C194.203 546.1 209.403 592.5 247.303 611.7C258.103 617.2 270.003 620 282.103 620C282.403 620 801.603 644 801.903 644C817.603 643.8 832.103 637.5 844.203 626.8Z" fill="#304057"/>
<path opacity="0.3" d="M859.102 567C859.102 604.8 843.302 637.7 819.902 655C836.502 636.5 847.102 608.9 847.102 578C847.102 523 813.602 478.3 771.902 477C771.302 477 251.702 501 251.102 501C234.602 501 218.602 506.3 205.302 516.1C219.902 499.5 240.902 490 263.102 490C263.702 490 783.302 466 783.902 466C825.602 467.3 859.102 512 859.102 567Z" fill="white"/>
<path d="M860.103 334C860.103 376.5 825.603 411 783.103 411C740.603 411 706.103 376.5 706.103 334C706.103 291.5 740.603 257 783.103 257C825.503 256.9 860.003 291.2 860.103 333.7C860.103 333.8 860.103 333.9 860.103 334Z" fill="url(#paint2_linear)"/>
<path opacity="0.15" d="M842.802 382.7C815.902 415.7 767.402 420.6 734.502 393.8C701.502 366.9 696.602 318.4 723.402 285.5C725.202 283.3 727.002 281.3 729.002 279.3C730.702 277.6 732.602 275.9 734.502 274.4C707.602 307.3 712.502 355.9 745.502 382.7C773.002 405.1 812.102 405.9 840.502 384.6C841.202 383.9 842.002 383.3 842.802 382.7Z" fill="#304057"/>
<path opacity="0.3" d="M860.102 334C860.102 358.2 848.702 381 829.402 395.5C828.802 386.2 827.402 377 825.102 368C821.402 353.3 814.702 326.7 792.102 306C772.302 287.9 745.902 279.5 729.002 279.2C759.302 249.3 808.002 249.6 837.902 279.9C852.102 294.3 860.102 313.7 860.102 334Z" fill="white"/>
<path d="M5.10254 334C5.10254 389.5 39.1025 434.5 81.3025 435C81.6025 435 600.803 411 601.103 411C643.603 411 678.103 376.5 678.103 334C678.103 291.5 643.603 257 601.103 257C600.503 257 80.9025 233 80.3025 233C38.6025 234.3 5.10254 279 5.10254 334Z" fill="url(#paint3_linear)"/>
<path opacity="0.15" d="M675.403 354.5C666.103 387.9 635.803 411 601.103 411C600.803 411 81.6025 435 81.3025 435C39.1025 434.5 5.10254 389.5 5.10254 334C5.10254 310.5 11.2025 288.9 21.5025 271.7C17.3025 284.7 15.1025 298.3 15.1025 312C15.1025 367.5 49.1025 412.5 91.3025 413C91.6025 413 610.803 389 611.103 389C637.003 389 661.103 376 675.403 354.5Z" fill="#304057"/>
<path opacity="0.3" d="M678.102 334C678.102 364.8 659.702 392.7 631.302 404.8C638.902 385.2 649.202 348 633.102 315C603.602 254.6 516.902 272 263.802 241.4C413.602 248.3 600.802 257 601.102 257C643.602 257 678.102 291.5 678.102 334Z" fill="white"/>
<path d="M77.1028 178C119.629 178 154.103 143.526 154.103 101C154.103 58.4741 119.629 24 77.1028 24C34.5769 24 0.102783 58.4741 0.102783 101C0.102783 143.526 34.5769 178 77.1028 178Z" fill="url(#paint4_linear)"/>
<path opacity="0.3" d="M154.103 101C154.103 122.1 145.503 142.4 130.103 156.9C153.903 121.7 144.603 73.8 109.403 50C79.4026 29.7 39.4026 33.1 13.2026 58.1C36.8026 22.8 84.7026 13.4 120.003 37C141.303 51.3 154.103 75.3 154.103 101Z" fill="white"/>
<path opacity="0.15" d="M143.203 140.6C121.403 177.1 74.2027 189.1 37.6027 167.3C1.00272 145.5 -10.8973 98.2 10.9027 61.7C13.3027 57.7 16.0027 53.9 19.1027 50.4C-2.79729 86.9 9.00272 134.2 45.5027 156.1C77.5027 175.3 118.703 168.8 143.203 140.6Z" fill="#304057"/>
<path d="M858.103 99C858.103 103.5 857.903 107.9 857.403 112.4C855.903 128.1 851.103 143.2 843.403 157.1C829.503 181.7 807.003 197.8 781.503 198.1C781.203 198.1 259.703 174.6 259.403 174.6C216.703 174.6 182.103 140.8 182.103 99.1C182.103 57.4 216.703 23.6 259.403 23.6C259.703 23.6 397.603 17.4 531.703 11.3L533.803 11.2C660.103 5.5 782.303 0 782.603 0C824.503 1.2 858.103 45.1 858.103 99Z" fill="url(#paint5_linear)"/>
<path opacity="0.15" d="M828.603 177.2C815.303 192.4 797.903 201.7 778.903 202C778.603 202 259.403 178 259.103 178C231.103 178 205.303 162.8 191.703 138.3C206.903 148.6 224.903 154.1 243.303 154C243.603 154 818.403 178 818.703 178C822.103 178 825.403 177.7 828.603 177.2Z" fill="#304057"/>
<path d="M858.103 101C858.103 105.6 857.903 110.1 857.403 114.6C839.503 99.2 816.403 75.9 780.103 61C714.703 34.2 681.003 65.2 615.103 51C591.603 46 563.503 35.1 533.203 11.5L535.303 11.4C661.003 5.6 782.603 0 782.903 0C824.603 1.3 858.103 46 858.103 101Z" fill="white" fill-opacity="0.3"/>
<defs>
<linearGradient id="paint0_linear" x1="31.2306" y1="611.488" x2="107.971" y2="543.048" gradientUnits="userSpaceOnUse">
<stop stop-color="#7854F6"/>
<stop offset="1" stop-color="#12A4ED"/>
</linearGradient>
<linearGradient id="paint1_linear" x1="287.967" y1="649.01" x2="810.487" y2="492.25" gradientUnits="userSpaceOnUse">
<stop stop-color="#7854F6"/>
<stop offset="1" stop-color="#12A4ED"/>
</linearGradient>
<linearGradient id="paint2_linear" x1="567.851" y1="478.347" x2="803.731" y2="320.167" gradientUnits="userSpaceOnUse">
<stop offset="0.26" stop-color="#304057"/>
<stop offset="1" stop-color="#FF8CA4"/>
</linearGradient>
<linearGradient id="paint3_linear" x1="-74.7185" y1="537.498" x2="474.722" y2="254.458" gradientUnits="userSpaceOnUse">
<stop offset="0.26" stop-color="#304057"/>
<stop offset="1" stop-color="#FF8CA4"/>
</linearGradient>
<linearGradient id="paint4_linear" x1="-31.5262" y1="136.213" x2="207.714" y2="58.6832" gradientUnits="userSpaceOnUse">
<stop stop-color="#FF612E"/>
<stop offset="1" stop-color="#FFD150"/>
</linearGradient>
<linearGradient id="paint5_linear" x1="211.281" y1="244.011" x2="613.964" y2="69.265" gradientUnits="userSpaceOnUse">
<stop stop-color="#FF612E"/>
<stop offset="1" stop-color="#FFD150"/>
</linearGradient>
</defs>
</svg>
