<svg width="673" height="833" viewBox="0 0 673 833" fill="none" xmlns="http://www.w3.org/2000/svg">
<path d="M671.43 334.5C671.465 368.38 666.346 402.069 656.25 434.41C655.82 435.79 655.38 437.17 654.92 438.54C654.81 438.89 654.7 439.24 654.58 439.54C652.54 445.74 650.317 451.857 647.91 457.89C644.35 466.843 640.423 475.6 636.13 484.16C597.291 561.65 529.914 621.058 448.17 649.887C366.426 678.717 276.688 674.721 197.83 638.74L195.15 637.5L194.99 637.42C189.08 634.67 183.29 631.72 177.59 628.63C169.657 624.33 161.927 619.72 154.4 614.8C152.467 613.553 150.557 612.28 148.67 610.98C60.3899 550.82 2.42993 449.43 2.42993 334.5C2.42993 149.76 152.19 9.01861e-06 336.93 9.01861e-06C377.055 -0.0494294 416.859 7.14248 454.43 21.23C459.897 23.2767 465.293 25.4667 470.62 27.8L471.93 28.37L474.93 29.71L476.78 30.56C591.69 83.51 671.43 199.69 671.43 334.5Z" fill="white"/>
<path d="M654.92 438.54C654.81 438.89 654.7 439.24 654.58 439.54C652.54 445.74 650.317 451.857 647.91 457.89C644.35 466.843 640.424 475.6 636.13 484.16C597.292 561.65 529.914 621.058 448.17 649.887C366.427 678.717 276.688 674.721 197.83 638.74L195.15 637.5L194.99 637.42L265.56 503.36L276.25 481.14L287.16 458.45L308.49 414.1L315.64 399.22L319.46 391.29L321.37 387.29L340 348.69L346.2 335.8L354.31 318.94L361.94 303.07L371.94 282.24L379.58 266.37L389.58 245.54L397.21 229.67L405.59 212.26L416.29 190L428.45 167.68L519 168L654.92 438.54Z" fill="#544E50"/>
<path d="M399.09 225.14L396.91 229.67L389.29 245.54L388.43 247.32H395.43L390.64 285.57L370.11 285.43L361.63 303.06L354.9 317H386.68L380 370.37H329.25L323.08 383.21H399.71L403.6 353.58L405.67 337.77L408.4 317L410.47 301.19L413.2 280.45L415.27 264.64L420.46 225.13L399.09 225.14Z" fill="url(#paint0_linear)"/>
<path d="M430.07 421.75H304.54L308.19 414.15L315.34 399.27L319.16 391.33L321.07 387.38L323.07 383.21H399.7L432.2 416.72C432.59 417.144 432.85 417.671 432.948 418.239C433.046 418.806 432.979 419.39 432.755 419.921C432.53 420.451 432.157 420.906 431.681 421.23C431.205 421.555 430.646 421.735 430.07 421.75Z" fill="url(#paint1_linear)"/>
<path d="M265.26 503.42L248.69 534.88L247.4 537.34H270.75V492L265.26 503.42ZM434.26 425.87C433.939 425.755 433.601 425.697 433.26 425.7H302.63L296.4 438.7L293.93 443.82V464H322.06V439.76H352.86V464H381V439.76H406.18V463.21H284.59L275.95 481.21L274.03 485.21H293.93V505.77H322.06V485.18H352.86V505.74H381V485.18H406.18V537.34H434.3V436.06H436.3V428.67C436.293 428.053 436.097 427.454 435.737 426.953C435.377 426.451 434.872 426.073 434.29 425.87H434.26Z" fill="url(#paint2_linear)"/>
<path d="M408.63 534.88V482.72H381V485.18H406.18V537.34H434.3V534.88H408.63ZM381 437.3V439.76H406.18V463.21H408.64V437.3H381ZM355.33 503.3V482.72H322.06V485.18H352.86V505.74H381V503.27L355.33 503.3ZM355.33 463.98V437.3H322.06V439.76H352.86V464L355.33 463.98ZM296.4 503.27V482.72H276.49L274 485.18H293.9V505.74H322.03V503.27H296.4ZM248.69 534.88L247.4 537.34H270.75V534.88H248.69ZM296.4 464V438.68L293.93 443.8V464H296.4Z" fill="black" fill-opacity="0.4"/>
<path d="M277 244.24L282.49 287.93L368.6 288.49L371.6 282.34L288 281.8L284 250.4H386.94L389.29 245.54L389.91 244.24H277ZM285.77 313.93L293.22 373.45H327.75L330.75 367.29H298.75L292.82 320.09H353.49L354.04 318.94L356.44 313.94L285.77 313.93ZM400.57 222.05H253L273 382.05L274.92 380.15H278.97L259.97 228.24H397.62L400.57 222.05Z" fill="#544E50"/>
<path d="M299.38 432.48L302.38 426.32H242.62C241.015 426.32 239.476 426.957 238.342 428.092C237.207 429.227 236.57 430.765 236.57 432.37V442.84H239.57V537.84H247.17L250.43 531.66H245.73V436.66H242.73V432.46L299.38 432.48ZM294.38 442.84L297.38 436.68H267.67V468.76H281.93L284.93 462.59H273.83V442.84H294.38Z" fill="#544E50"/>
<path d="M356.09 314.55L354.9 317H386.38L386.68 314.54L356.09 314.55ZM389.62 244.85L389.29 245.54L388.43 247.32H395.1L395.41 244.85H389.62Z" fill="black" fill-opacity="0.4"/>
<path d="M430.07 421.75H304.54L306.32 418.05H430.07C430.516 418.057 430.958 417.96 431.36 417.767C431.763 417.575 432.115 417.292 432.39 416.94C432.723 417.38 432.929 417.904 432.983 418.453C433.038 419.003 432.94 419.557 432.7 420.054C432.46 420.552 432.088 420.973 431.624 421.272C431.16 421.571 430.622 421.737 430.07 421.75Z" fill="black" fill-opacity="0.4"/>
<path d="M324.55 380.13L323.07 383.2L321.58 386.29H273.49L272.96 382.03L274.88 380.13H324.55Z" fill="#544E50"/>
<path d="M307.2 416.2L304.25 422.36H246.71C245.521 422.379 244.354 422.045 243.356 421.399C242.358 420.754 241.574 419.826 241.103 418.735C240.633 417.643 240.498 416.436 240.714 415.268C240.931 414.099 241.49 413.021 242.32 412.17L273 382L273.53 386.26H277.58L247 416.2H307.2Z" fill="#544E50"/>
<path d="M476.78 109.49V30.56L474.93 29.71L471.93 28.37L470.62 27.8V109.58C446.47 111.58 429.09 128.14 429.09 152.85V157.78H519.54V152.85C519.54 127.48 501.64 110.84 476.78 109.49ZM435.27 151.62C435.82 130.11 450.89 116.86 472.27 115.62L475.47 115.57C497.02 116.3 512.76 129.92 513.34 151.57L435.27 151.62Z" fill="#544E50"/>
<path d="M0 722.21H21.52C33.8533 722.21 42.1867 722.747 46.52 723.82C52.4507 725.191 57.7666 728.473 61.65 733.16C65.57 737.88 67.53 743.8 67.53 750.92C67.53 758.04 65.62 763.963 61.8 768.69C57.9333 773.35 52.6667 776.487 46 778.1C41.1 779.267 31.9467 779.85 18.54 779.85H10.79V830H0V722.21ZM10.79 732.76V769.31L29.08 769.53C36.4733 769.53 41.8833 768.863 45.31 767.53C48.6319 766.273 51.4636 763.984 53.39 761C55.3313 758.028 56.3507 754.549 56.32 751C56.344 747.483 55.3244 744.038 53.39 741.1C51.55 738.199 48.8362 735.958 45.64 734.7C42.4333 733.433 37.1833 732.8 29.89 732.8L10.79 732.76Z" fill="#D9C8C0"/>
<path d="M153.51 722.21L203.89 830H192.23L175.23 794.55H128.71L111.88 830H99.8799L150.88 722.26L153.51 722.21ZM152.15 745.1L133.64 784.1H170.57L152.15 745.1Z" fill="#D9C8C0"/>
<path d="M158.42 732.71L152.3 745.43L170.57 784.11H133.67L111.6 830H111.88L128.71 794.55H175.24L192.24 830H203.9L158.42 732.71Z" fill="url(#paint3_linear)"/>
<path d="M230.22 732.76V722.21H289.4V732.76H265.32V830H254.32V732.76H230.22Z" fill="url(#paint4_linear)"/>
<path d="M325.86 722.21H347.38C359.38 722.21 367.507 722.7 371.76 723.68C377.883 724.975 383.392 728.293 387.4 733.1C391.4 737.92 393.4 743.85 393.4 750.89C393.516 756.336 392.076 761.703 389.25 766.36C386.432 770.86 382.294 774.38 377.4 776.44C372.247 778.72 365.147 779.883 356.1 779.93L395 830H381.61L342.76 780H336.66V830H325.86V722.21ZM336.66 732.76V769.38L355.27 769.53C362.483 769.53 367.817 768.863 371.27 767.53C374.598 766.264 377.433 763.965 379.36 760.97C381.291 757.969 382.3 754.468 382.26 750.9C382.292 747.396 381.268 743.963 379.32 741.05C377.463 738.19 374.767 735.975 371.6 734.71C368.413 733.45 363.117 732.817 355.71 732.81L336.66 732.76Z" fill="url(#paint5_linear)"/>
<path d="M488.3 719.5C504.66 719.5 518.353 724.947 529.38 735.84C540.407 746.733 545.917 760.137 545.91 776.05C545.91 791.823 540.41 805.2 529.41 816.18C518.41 827.16 505 832.653 489.18 832.66C473.18 832.66 459.66 827.193 448.62 816.26C443.286 811.132 439.066 804.961 436.222 798.131C433.379 791.3 431.972 783.958 432.09 776.56C432.022 766.468 434.62 756.537 439.62 747.77C444.459 739.114 451.559 731.935 460.16 727C468.703 722.034 478.419 719.445 488.3 719.5ZM488.78 729.98C480.766 730.054 472.909 732.213 465.982 736.246C459.056 740.279 453.3 746.046 449.28 752.98C445.236 760.155 443.165 768.274 443.28 776.51C443.28 789.323 447.73 800.137 456.63 808.95C460.813 813.227 465.824 816.606 471.357 818.881C476.89 821.156 482.828 822.278 488.81 822.18C496.971 822.237 505.002 820.136 512.09 816.09C519.075 812.185 524.849 806.431 528.78 799.46C532.81 792.304 534.88 784.212 534.78 776C534.889 767.869 532.817 759.858 528.78 752.8C524.75 745.848 518.918 740.113 511.9 736.2C504.882 732.115 496.901 729.974 488.78 730V729.98Z" fill="url(#paint6_linear)"/>
<path d="M588 830V722.21H590.35L662.24 804.8V722.21H672.89V830H670.47L599.16 748.42V830H588Z" fill="url(#paint7_linear)"/>
<defs>
<linearGradient id="paint0_linear" x1="382.09" y1="180.77" x2="367.18" y2="359.03" gradientUnits="userSpaceOnUse">
<stop stop-color="#FFA737"/>
<stop offset="1" stop-color="#DC851F"/>
</linearGradient>
<linearGradient id="paint1_linear" x1="379.85" y1="371.25" x2="366.47" y2="430.76" gradientUnits="userSpaceOnUse">
<stop offset="0.24" stop-color="#FFA737"/>
<stop offset="1" stop-color="#DC851F"/>
</linearGradient>
<linearGradient id="paint2_linear" x1="76763.2" y1="47053.3" x2="72791.5" y2="58777.8" gradientUnits="userSpaceOnUse">
<stop stop-color="#FFA737"/>
<stop offset="1" stop-color="#DC851F"/>
</linearGradient>
<linearGradient id="paint3_linear" x1="31659.7" y1="49211.3" x2="13500.3" y2="79565.7" gradientUnits="userSpaceOnUse">
<stop stop-color="#FFA737"/>
<stop offset="1" stop-color="#DC851F"/>
</linearGradient>
<linearGradient id="paint4_linear" x1="23306.3" y1="57376.6" x2="485.162" y2="79453.2" gradientUnits="userSpaceOnUse">
<stop stop-color="#FFA737"/>
<stop offset="1" stop-color="#DC851F"/>
</linearGradient>
<linearGradient id="paint5_linear" x1="33176.4" y1="62589.4" x2="10512.9" y2="88202.5" gradientUnits="userSpaceOnUse">
<stop stop-color="#FFA737"/>
<stop offset="1" stop-color="#DC851F"/>
</linearGradient>
<linearGradient id="paint6_linear" x1="65594.5" y1="71920.3" x2="45074.9" y2="108286" gradientUnits="userSpaceOnUse">
<stop stop-color="#FFA737"/>
<stop offset="1" stop-color="#DC851F"/>
</linearGradient>
<linearGradient id="paint7_linear" x1="58256.3" y1="75082.2" x2="36595.6" y2="105139" gradientUnits="userSpaceOnUse">
<stop stop-color="#FFA737"/>
<stop offset="1" stop-color="#DC851F"/>
</linearGradient>
</defs>
</svg>
