<svg width="116" height="29" viewBox="0 0 116 29" fill="none" xmlns="http://www.w3.org/2000/svg">
<path d="M10.1255 8.07901C7.15153 8.07901 4.79019 8.93406 3.0415 10.6442C1.2928 12.3543 0.422069 14.8157 0.429305 18.0285V28.2566H4.21011V18.0285C4.21011 15.9301 4.73833 14.3345 5.80202 13.231C6.86571 12.1275 8.30929 11.5812 10.1436 11.5812C11.9779 11.5812 13.4143 12.1493 14.4671 13.2346C15.52 14.32 16.059 15.9337 16.059 18.0321V28.2602H19.8507V18.0285C19.8507 14.7916 18.9751 12.3241 17.224 10.6261C15.4729 8.92804 13.1068 8.07901 10.1255 8.07901Z" fill="#006666"/>
<path d="M34.5361 8.07901C31.4319 8.07901 28.8908 9.05345 26.913 11.0023C24.9352 12.9512 23.9475 15.4259 23.9499 18.4265C23.9499 21.6103 24.9315 24.1308 26.8949 25.9881C27.8207 26.8931 28.9159 27.6065 30.1179 28.0877C31.3198 28.5688 32.6048 28.8082 33.8993 28.792C35.5452 28.827 37.1669 28.3915 38.5738 27.5366C39.8734 26.7457 40.896 25.5714 41.5007 24.1754H41.5803V28.2746H45.0428V18.5857C45.0428 15.4501 44.0671 12.9175 42.1158 10.9879C40.1645 9.05828 37.6379 8.08866 34.5361 8.07901ZM39.4313 23.365C38.1818 24.6386 36.5501 25.2753 34.5361 25.2753C32.5221 25.2753 30.8904 24.6386 29.641 23.365C28.3916 22.0915 27.7681 20.4465 27.7705 18.4301C27.7729 16.4136 28.3964 14.7687 29.641 13.4951C30.8856 12.2216 32.5173 11.5848 34.5361 11.5848C36.555 11.5848 38.1867 12.2204 39.4313 13.4915C40.6758 14.7651 41.2993 16.41 41.3018 18.4265C41.3042 20.4429 40.6807 22.0891 39.4313 23.365Z" fill="#006666"/>
<path d="M71.9064 8.07901C68.7226 8.07901 66.4312 9.35254 65.0323 11.8996H64.9527C63.5465 9.35254 61.2551 8.07901 58.0785 8.07901C55.6665 8.07901 53.7091 8.82191 52.2065 10.3077C50.7038 11.7935 49.9428 13.9824 49.9235 16.8743V28.2566H53.7043V16.8743C53.7043 15.1232 54.1288 13.8027 54.9779 12.9126C55.9073 12.053 57.1279 11.5773 58.3939 11.5813C59.6599 11.5853 60.8775 12.0688 61.8014 12.9344C62.6625 13.8364 63.0942 15.1498 63.0966 16.8743V28.2566H66.8919V16.8743C66.8919 15.1498 67.3164 13.8364 68.1654 12.9344C68.6005 12.481 69.1273 12.1258 69.7107 11.8925C70.2941 11.6591 70.9206 11.553 71.5483 11.5812C72.1802 11.5512 72.8113 11.6542 73.4009 11.8836C73.9905 12.1129 74.5254 12.4635 74.9709 12.9126C75.8175 13.8027 76.242 15.1232 76.2444 16.8743V28.2566H80.0252V16.8743C80.0252 13.98 79.2751 11.7911 77.7748 10.3077C76.2746 8.82432 74.3184 8.08142 71.9064 8.07901Z" fill="#006666"/>
<path d="M89.4138 6.10352e-05H85.633V28.2566H89.4138V6.10352e-05Z" fill="#006666"/>
<path d="M112.359 10.9841C110.41 9.05449 107.878 8.08969 104.761 8.08969C101.645 8.08969 99.1053 9.06413 97.1419 11.013C95.1665 12.9643 94.1788 15.4391 94.1788 18.4372C94.1788 21.621 95.1592 24.1415 97.1202 25.9988C98.9945 27.8198 101.515 28.8219 104.128 28.7846C105.774 28.8197 107.396 28.3841 108.803 27.5292C110.102 26.7392 111.124 25.5646 111.726 24.1681H111.806V28.2673H115.268V18.5855C115.278 15.4523 114.308 12.9185 112.359 10.9841ZM109.675 23.3649C108.428 24.6384 106.795 25.2752 104.776 25.2752C102.757 25.2752 101.125 24.6384 99.8807 23.3649C98.6361 22.0913 98.0126 20.4464 98.0102 18.4299C98.0078 16.4135 98.6313 14.7685 99.8807 13.495C101.13 12.2214 102.762 11.5847 104.776 11.5847C106.79 11.5847 108.423 12.2214 109.675 13.495C110.919 14.7685 111.543 16.4135 111.545 18.4299C111.548 20.4464 110.924 22.0913 109.675 23.3649Z" fill="#006666"/>
</svg>
