<svg width="326" height="121" viewBox="0 0 326 121" fill="none" xmlns="http://www.w3.org/2000/svg">
<g clip-path="url(#clip0)">
<path d="M44.9033 119.848C29.9153 119.848 16.132 112.776 8.72217 102.606V102.256L15.6138 90.5362C20.9575 98.2953 31.295 104.33 45.0783 105.192H49.5605C61.4459 105.192 71.2651 96.3959 71.2651 84.5013C71.2651 72.6068 61.9641 67.7708 49.5605 65.8782C46.9761 65.2046 44.735 65.2047 41.4844 64.6726C24.4302 61.3925 9.09905 51.3905 9.09905 33.286C9.09905 15.1814 23.7438 0.0134888 41.4844 0.0134888H44.0687C55.9609 0.0134888 68.7077 5.18621 75.0811 13.2888L67.2944 27.6014C60.5643 20.1925 54.2043 16.0503 44.0351 15.5317H41.4507C32.3247 15.5317 24.7398 23.8094 24.7398 33.286C24.7398 42.4258 31.1133 47.4301 41.4507 48.7772C45.758 49.2958 48.6923 49.4507 49.897 49.6393C70.3969 52.4008 85.9031 64.127 85.9031 84.4744C85.9031 104.647 69.5355 119.303 49.5605 119.821L44.9033 119.848Z" fill="#22A8A7"/>
<path d="M152.221 38.1975L135.068 73.5508L159.083 119.848H143.502L126.176 87.0778L110.595 119.848H98.1575V0.0134277H111.771V87.0433L136.355 38.1975H152.221Z" fill="#22A8A7"/>
<path d="M307.476 10.2745C309.456 10.3273 311.34 11.1385 312.74 12.5408C314.14 13.9432 314.949 15.8297 315 17.8113C314.977 19.802 314.178 21.7048 312.772 23.1132C311.366 24.5215 309.465 25.3236 307.476 25.3481C306.487 25.349 305.507 25.1547 304.593 24.7762C303.679 24.3978 302.848 23.8427 302.149 23.1426C301.449 22.4426 300.894 21.6114 300.516 20.6966C300.138 19.7818 299.944 18.8013 299.945 17.8113C299.969 15.82 300.771 13.9172 302.178 12.509C303.585 11.1008 305.486 10.2989 307.476 10.2745ZM314.839 121.205H300.416V41.2165H314.832L314.839 121.205Z" fill="#22A8A7"/>
<path d="M242.205 66.0061C241.561 67.6029 240.742 69.1232 239.762 70.539C239.091 72.0939 238.315 73.6016 237.44 75.0517C236.673 76.5604 235.798 78.0354 234.984 79.5307C234.17 81.0259 233.382 82.5346 232.568 84.0299C231.753 85.5251 230.939 87.0136 230.118 88.5021C229.297 89.9906 228.476 91.4858 227.668 92.9743C226.861 94.4628 226.073 95.9446 225.272 97.4197C224.471 98.8947 223.623 100.403 222.802 101.899C221.981 103.394 221.187 104.889 220.373 106.371C219.558 107.853 218.758 109.368 217.937 110.863C217.115 112.359 216.288 113.84 215.473 115.336C214.659 116.831 213.858 118.333 213.044 119.848H199.032C198.399 119.848 198.359 119.848 198.359 119.175V-0.585956C198.399 -0.936193 198.486 -1.01703 198.843 -1.03723H212.923C213.185 -0.801495 213.124 -0.50514 213.131 -0.235727V65.0969C213.131 66.1206 213.091 66.0398 214.1 66.0398L242.205 66.0061Z" fill="#22A8A7"/>
<path d="M287.76 40L249.957 106.006H286.3V120.15H225.015L239.014 95.8627L262.179 54.4877H226.307V40H287.76Z" fill="#22A8A7"/>
<path d="M178.546 10.2745C180.526 10.3273 182.411 11.1385 183.811 12.5408C185.211 13.9432 186.02 15.8297 186.071 17.8113C186.048 19.802 185.248 21.7048 183.842 23.1132C182.436 24.5215 180.536 25.3236 178.546 25.3481C177.557 25.349 176.577 25.1547 175.663 24.7762C174.749 24.3978 173.919 23.8427 173.219 23.1426C172.52 22.4426 171.965 21.6114 171.587 20.6966C171.209 19.7818 171.014 18.8013 171.015 17.8113C171.04 15.82 171.841 13.9172 173.248 12.509C174.655 11.1008 176.557 10.2989 178.546 10.2745ZM185.95 121.205H171.487V41.2165H185.902L185.95 121.205Z" fill="#22A8A7"/>
</g>
<defs>
<clipPath id="clip0">
<rect width="326" height="121" fill="white"/>
</clipPath>
</defs>
</svg>
